<svg width="61" height="61" viewBox="0 0 61 61" fill="none" xmlns="http://www.w3.org/2000/svg">
<path fill-rule="evenodd" clip-rule="evenodd" d="M3.234 0.00536457C2.55151 0.0718715 1.90245 0.333248 1.36395 0.758324C0.82545 1.1834 0.420167 1.75433 0.196269 2.4033C-0.0276303 3.05227 -0.060732 3.75193 0.100905 4.41918C0.262542 5.08644 0.612121 5.6932 1.10808 6.16733L25.3883 30.5352L1.10808 54.8469C0.433088 55.5229 0.0539074 56.4397 0.0539538 57.3956C0.0540002 58.3515 0.433269 59.2682 1.10833 59.9442C1.78339 60.6201 2.69896 60.9999 3.65365 61C4.60833 61.0001 5.52395 60.6204 6.1991 59.9445L30.5353 35.5768L54.8155 59.9445C55.4907 60.6204 56.4063 61.0001 57.361 61C58.3156 60.9999 59.2312 60.6201 59.9063 59.9442C60.5813 59.2682 60.9606 58.3515 60.9606 57.3956C60.9607 56.4397 60.5815 55.5229 59.9065 54.8469L35.5703 30.5352L59.9065 6.16733C60.4285 5.66261 60.7851 5.01102 60.9289 4.29883C61.0728 3.58664 60.9971 2.84752 60.712 2.17934C60.4269 1.51116 59.9457 0.945446 59.3323 0.557228C58.7189 0.16901 58.0022 -0.0234599 57.2771 0.00536457C56.3499 0.0275728 55.4674 0.409182 54.8155 1.06981L30.5353 25.3816L6.1991 1.06981C5.86286 0.729313 5.46191 0.459737 5.01991 0.27692C4.57792 0.0941035 4.10383 0.00173108 3.62562 0.00536457C3.49518 -0.00178819 3.36444 -0.00178819 3.234 0.00536457Z" fill="white"/>
</svg>
