<svg width="50" height="50" viewBox="0 0 50 50" fill="none" xmlns="http://www.w3.org/2000/svg">
<rect width="50" height="50" fill="white"/>
<path fill-rule="evenodd" clip-rule="evenodd" d="M13.394 3.98337C13.4601 4.59448 13.309 4.98837 12.6934 4.91781C12.6273 4.3067 12.7784 3.91281 13.394 3.98337Z" fill="black"/>
<path fill-rule="evenodd" clip-rule="evenodd" d="M29.5129 3.98334C29.8245 3.98334 30.1362 3.98334 30.4479 3.98334C30.7206 4.79389 29.1418 5.06945 29.5129 3.98334Z" fill="black"/>
<path fill-rule="evenodd" clip-rule="evenodd" d="M15.73 5.15116C16.345 5.08116 16.4967 5.47505 16.4306 6.0856C16.1189 6.0856 15.8072 6.0856 15.4961 6.0856C15.3978 5.59727 15.6567 5.46727 15.73 5.15116Z" fill="black"/>
<path fill-rule="evenodd" clip-rule="evenodd" d="M40.2596 5.38501C40.4929 5.38501 40.7268 5.38501 40.9607 5.38501C40.9607 5.69668 40.9607 6.00834 40.9607 6.31946C40.6485 6.31946 40.3379 6.31946 40.0257 6.31946C39.9968 5.90057 40.3118 5.82723 40.2596 5.38501Z" fill="black"/>
<path fill-rule="evenodd" clip-rule="evenodd" d="M20.6362 6.08557C20.8701 6.08557 21.1034 6.08557 21.3373 6.08557C21.3984 6.84724 21.0595 7.21002 20.4023 7.2539C20.3279 6.71224 20.4401 6.35724 20.6362 6.08557Z" fill="black"/>
<path fill-rule="evenodd" clip-rule="evenodd" d="M44.4645 6.31946C44.6979 6.31946 44.9312 6.31946 45.1656 6.31946C45.1656 6.63113 45.1656 6.94224 45.1656 7.2539C44.3851 7.48835 44.399 6.93001 44.4645 6.31946Z" fill="black"/>
<path fill-rule="evenodd" clip-rule="evenodd" d="M17.599 6.55334C18.194 6.57668 18.1512 7.4239 17.8329 7.72112C16.8768 7.84945 17.0429 6.71223 17.599 6.55334Z" fill="black"/>
<path fill-rule="evenodd" clip-rule="evenodd" d="M26.2422 7.25391C26.6527 7.31002 26.7755 7.65557 26.7094 8.18835C26.4755 8.18835 26.2422 8.18835 26.0089 8.18835C25.9105 7.70002 26.1689 7.57002 26.2422 7.25391Z" fill="black"/>
<path fill-rule="evenodd" clip-rule="evenodd" d="M13.1601 13.795C8.63346 14.85 7.85124 10.0712 10.1235 8.18838C11.439 8.47338 14.6124 7.13282 15.2624 9.59004C15.7129 11.2906 14.4657 12.7862 13.1601 13.795ZM10.5907 12.6273C11.4746 13.1973 12.4885 13.0256 13.6279 12.8606C14.3896 12.205 15.1896 9.80838 13.8612 9.12282C14.8324 11.6084 11.8429 11.64 10.5907 12.6273Z" fill="black"/>
<path fill-rule="evenodd" clip-rule="evenodd" d="M6.38555 8.88894C6.49277 9.61894 5.88666 9.63616 5.21777 9.59005C5.21777 9.35672 5.21777 9.12283 5.21777 8.88894C5.52444 8.58894 6.07888 8.58894 6.38555 8.88894Z" fill="black"/>
<path fill-rule="evenodd" clip-rule="evenodd" d="M37.9234 8.88892C38.1573 8.88892 38.3901 8.88892 38.624 8.88892C38.6334 9.59947 38.7606 10.4267 37.9234 10.2906C37.604 9.99169 37.604 9.1878 37.9234 8.88892Z" fill="black"/>
<path fill-rule="evenodd" clip-rule="evenodd" d="M30.9145 10.2906C30.8834 12.6206 30.8528 14.4456 30.68 16.1317C27.7528 15.7711 25.2589 17.4511 25.5411 21.0373C26.7739 21.0723 28.4617 21.0045 29.9795 20.8034C30.1528 22.5828 29.3423 24.1939 29.9795 25.7095C29.3823 26.7467 27.7378 26.7367 26.0089 26.6445C25.6861 27.3206 25.475 29.5834 26.2423 29.9145C25.1745 30.8778 25.4417 34.1384 25.775 35.7556C24.5173 36.9889 21.6656 36.6295 19.7011 37.1573C18.6645 34.1134 18.6745 29.9689 18.7667 26.4106C17.7484 26.0184 16.2467 26.9461 14.795 26.8784C14.4434 25.205 14.4511 23.1728 14.3284 21.2711C16.4228 20.7539 17.1117 21.4395 19 20.8039C19.0917 13.4189 23.3989 10.2506 30.9145 10.2906ZM20.1689 21.0373C19.5295 22.345 16.9711 21.7334 15.4967 22.205C15.3589 23.5661 15.7234 24.9478 15.4967 25.7095C17.1445 25.8778 17.9306 25.1845 19.4684 25.2423C19.9906 28.6917 19.3017 33.3511 20.87 35.755C21.5206 35.9195 23.58 35.7328 24.6073 35.5206C24.3295 32.3889 24.6595 28.9484 24.8411 25.9434C26.2684 25.9684 27.4928 25.7928 28.5784 25.4756C29.0484 24.7778 28.7111 23.2717 28.8128 22.205C27.5311 21.4817 25.6645 22.7389 24.3739 21.9717C24.3006 17.8489 25.9106 15.4095 29.7467 15.1967C29.745 13.4923 29.7989 12.5178 29.98 11.4589C23.8 10.7178 19.3417 14.7761 20.1689 21.0373Z" fill="black"/>
<path fill-rule="evenodd" clip-rule="evenodd" d="M21.3368 10.7584C21.4929 10.7584 21.6479 10.7584 21.8035 10.7584C21.7607 10.9567 21.8946 10.9784 22.0374 10.9917C22.0374 11.1478 22.0374 11.3034 22.0374 11.4589C21.8385 11.4161 21.8174 11.55 21.8035 11.6922C21.6479 11.6922 21.4924 11.6922 21.3368 11.6922C21.3796 11.4939 21.2457 11.4722 21.1029 11.4589C21.1029 11.3028 21.1029 11.1473 21.1029 10.9917C21.3024 11.035 21.3235 10.9006 21.3368 10.7584Z" fill="black"/>
<path fill-rule="evenodd" clip-rule="evenodd" d="M34.6528 11.2256C34.9634 11.2256 35.2761 11.2256 35.5867 11.2256C35.6867 11.7139 35.4273 11.8434 35.3539 12.16C34.7378 12.23 34.5873 11.8361 34.6528 11.2256Z" fill="black"/>
<path fill-rule="evenodd" clip-rule="evenodd" d="M36.7556 13.0939C36.7556 13.3278 36.7556 13.5617 36.7556 13.795C36.3412 13.7417 35.5851 14.03 35.8201 13.3278C36.029 13.1461 36.3484 13.0767 36.7556 13.0939Z" fill="black"/>
<path fill-rule="evenodd" clip-rule="evenodd" d="M15.73 14.0289C16.975 13.8845 16.8078 15.3584 15.4961 14.9634C15.3978 14.475 15.6567 14.3445 15.73 14.0289Z" fill="black"/>
<path fill-rule="evenodd" clip-rule="evenodd" d="M32.7834 14.2622C33.2056 14.6634 32.7112 15.1811 32.0823 15.1967C32.0173 14.5861 32.1679 14.1922 32.7834 14.2622Z" fill="black"/>
<path fill-rule="evenodd" clip-rule="evenodd" d="M39.0906 15.1967C39.3245 15.1967 39.5589 15.1967 39.7917 15.1967C39.8911 15.6851 39.6322 15.8151 39.5589 16.1317C39.1478 16.0751 39.0261 15.7295 39.0906 15.1967Z" fill="black"/>
<path fill-rule="evenodd" clip-rule="evenodd" d="M41.8944 17.0656C41.8944 17.2989 41.8944 17.5334 41.8944 17.7667C41.48 17.7134 40.7255 18.0023 40.96 17.2995C41.1678 17.1178 41.4883 17.0484 41.8944 17.0656Z" fill="black"/>
<path fill-rule="evenodd" clip-rule="evenodd" d="M8.95561 17.5333C9.33283 17.4672 9.35783 17.7533 9.65616 17.7667C9.72616 18.3822 9.33283 18.5333 8.72227 18.4672C8.62283 17.9789 8.88172 17.8483 8.95561 17.5333Z" fill="black"/>
<path fill-rule="evenodd" clip-rule="evenodd" d="M16.8983 17.5334C17.0067 18.2645 16.695 18.5761 15.9639 18.4672C15.855 17.7361 16.1667 17.4245 16.8983 17.5334Z" fill="black"/>
<path fill-rule="evenodd" clip-rule="evenodd" d="M27.4106 17.5334C28.1134 17.2978 27.8245 18.0534 27.8772 18.4673C27.6445 18.4673 27.4106 18.4673 27.1767 18.4673C27.0778 17.9789 27.3378 17.8484 27.4106 17.5334Z" fill="black"/>
<path fill-rule="evenodd" clip-rule="evenodd" d="M40.2595 17.7661C40.3256 18.3767 40.1739 18.7711 39.5589 18.7006C39.4351 18.5128 39.3151 18.3211 39.3245 18C39.5328 17.8189 39.8523 17.7489 40.2595 17.7661Z" fill="black"/>
<path fill-rule="evenodd" clip-rule="evenodd" d="M37.4561 18.4673C37.5539 20.2789 36.7667 21.2039 34.8856 21.0373C33.3745 19.3895 35.7278 16.8745 37.4561 18.4673ZM36.7556 19.1678C36.8606 18.7862 35.4823 18.7862 35.5867 19.1678C35.615 19.5006 36.8673 20.1306 36.7556 19.1678Z" fill="black"/>
<path fill-rule="evenodd" clip-rule="evenodd" d="M32.3167 18.935C32.0045 18.935 31.6945 18.935 31.3812 18.935C31.1984 18.035 32.5006 18.035 32.3167 18.935Z" fill="black"/>
<path fill-rule="evenodd" clip-rule="evenodd" d="M9.65616 19.4017C9.88949 19.4017 10.1239 19.4017 10.3573 19.4017C10.4228 20.0128 10.2723 20.4067 9.65616 20.3367C9.26672 19.8722 9.67727 20.0395 9.65616 19.4017Z" fill="black"/>
<path fill-rule="evenodd" clip-rule="evenodd" d="M15.7301 19.4017C16.4245 19.4222 16.3551 20.795 15.4962 20.57C15.4223 20.0283 15.534 19.6728 15.7301 19.4017Z" fill="black"/>
<path fill-rule="evenodd" clip-rule="evenodd" d="M29.2789 19.4017C29.3445 20.0128 29.1945 20.4067 28.5778 20.3367C28.5123 19.725 28.6639 19.3311 29.2789 19.4017Z" fill="black"/>
<path fill-rule="evenodd" clip-rule="evenodd" d="M43.7633 19.4017C44.6633 19.2178 44.6633 20.52 43.7633 20.3367C43.7633 20.0245 43.7633 19.7134 43.7633 19.4017Z" fill="black"/>
<path fill-rule="evenodd" clip-rule="evenodd" d="M40.9607 21.2706C41.194 21.2706 41.4274 21.2706 41.6618 21.2706C41.7274 21.8817 41.5763 22.2756 40.9607 22.205C40.9607 21.8939 40.9607 21.5822 40.9607 21.2706Z" fill="black"/>
<path fill-rule="evenodd" clip-rule="evenodd" d="M35.8206 22.6722C36.1328 22.6722 36.4439 22.6722 36.7561 22.6722C36.7267 23.2667 36.4156 23.5784 35.8206 23.6067C35.8206 23.2956 35.8206 22.9839 35.8206 22.6722Z" fill="black"/>
<path fill-rule="evenodd" clip-rule="evenodd" d="M10.8245 22.9056C11.8001 23.0617 10.9329 24.3561 10.3573 23.6061C10.4395 23.2995 10.7679 23.2395 10.8245 22.9056Z" fill="black"/>
<path fill-rule="evenodd" clip-rule="evenodd" d="M7.08618 23.1395C8.41562 24.0878 5.72952 24.6995 7.08618 23.1395V23.1395Z" fill="black"/>
<path fill-rule="evenodd" clip-rule="evenodd" d="M9.42282 23.6067C9.80005 23.5412 9.82505 23.8278 10.1239 23.8406C10.1939 24.4562 9.80005 24.6073 9.18893 24.5417C9.09005 24.0528 9.34949 23.9228 9.42282 23.6067Z" fill="black"/>
<path fill-rule="evenodd" clip-rule="evenodd" d="M11.7589 25.7089C12.4911 25.87 12.0633 26.3317 11.9922 26.8778C10.9483 26.9161 11.3895 26.055 11.7589 25.7089Z" fill="black"/>
<path fill-rule="evenodd" clip-rule="evenodd" d="M37.9234 25.9428C37.9901 26.5533 37.8384 26.9478 37.2223 26.8778C37.1562 26.2661 37.3079 25.8722 37.9234 25.9428Z" fill="black"/>
<path fill-rule="evenodd" clip-rule="evenodd" d="M40.0256 26.1767C40.1817 26.1767 40.3379 26.1767 40.4929 26.1767C40.4506 26.375 40.584 26.3967 40.7267 26.41C40.7267 26.565 40.7267 26.7217 40.7267 26.8778C40.529 26.8339 40.5068 26.9684 40.4929 27.1106C40.3379 27.1106 40.1817 27.1106 40.0256 27.1106C40.0684 26.9117 39.9351 26.8906 39.7917 26.8778C39.7917 26.7217 39.7917 26.565 39.7917 26.41C39.9906 26.4534 40.0123 26.3184 40.0256 26.1767Z" fill="black"/>
<path fill-rule="evenodd" clip-rule="evenodd" d="M31.1484 28.0456C31.7634 27.9744 31.915 28.3689 31.8495 28.98C31.5378 28.98 31.2261 28.98 30.9145 28.98C30.8856 28.56 31.2 28.4861 31.1484 28.0456Z" fill="black"/>
<path fill-rule="evenodd" clip-rule="evenodd" d="M28.5778 28.5123C28.99 28.5684 29.1116 28.915 29.0455 29.4473C28.8122 29.4473 28.5778 29.4473 28.345 29.4473C28.2461 28.9584 28.505 28.8295 28.5778 28.5123Z" fill="black"/>
<path fill-rule="evenodd" clip-rule="evenodd" d="M38.3901 29.4473C38.6312 30.4 37.299 30.6923 37.4562 29.6811C37.6628 29.4995 37.984 29.4295 38.3901 29.4473Z" fill="black"/>
<path fill-rule="evenodd" clip-rule="evenodd" d="M7.55399 32.2506C8.16955 32.18 8.32066 32.5745 8.25455 33.1861C7.94288 33.1861 7.63122 33.1861 7.32066 33.1861C7.22122 32.6967 7.48011 32.5661 7.55399 32.2506Z" fill="black"/>
<path fill-rule="evenodd" clip-rule="evenodd" d="M16.6645 32.485C16.6361 33.0778 16.325 33.3906 15.7306 33.4184C15.0028 32.775 16.0211 31.7567 16.6645 32.485Z" fill="black"/>
<path fill-rule="evenodd" clip-rule="evenodd" d="M12.6934 32.9517C12.8562 33.815 12.3234 33.9833 11.5256 33.8867C11.5256 33.6528 11.5256 33.4183 11.5256 33.1861C11.7962 32.9883 12.1517 32.8772 12.6934 32.9517Z" fill="black"/>
<path fill-rule="evenodd" clip-rule="evenodd" d="M33.7178 33.8861C33.4056 33.8861 33.0956 33.8861 32.7828 33.8861C32.6006 32.9867 33.9017 32.9867 33.7178 33.8861Z" fill="black"/>
<path fill-rule="evenodd" clip-rule="evenodd" d="M34.1845 34.1189C34.1845 34.3528 34.1845 34.5872 34.1845 34.82C33.4401 34.6817 33.4623 35.2578 33.0167 34.82C33.2312 34.4106 33.4523 34.0089 34.1845 34.1189Z" fill="black"/>
<path fill-rule="evenodd" clip-rule="evenodd" d="M15.2628 35.2884C15.2628 35.5989 15.2628 35.9112 15.2628 36.2217C14.9511 36.2217 14.6394 36.2217 14.3289 36.2217C14.22 35.4912 14.5317 35.1784 15.2628 35.2884Z" fill="black"/>
<path fill-rule="evenodd" clip-rule="evenodd" d="M12.6934 36.6895C12.59 37.7545 11.9345 38.2662 11.2917 38.7923C10.0362 38.2117 9.84115 37.8617 9.88949 36.2212C10.5267 34.9823 12.325 35.7023 12.6934 36.6895ZM11.0578 37.6234C11.9167 37.8484 11.9867 36.4773 11.2917 36.4556C11.3873 37.0184 10.8645 36.9634 11.0578 37.6234Z" fill="black"/>
<path fill-rule="evenodd" clip-rule="evenodd" d="M16.8984 38.7922C17.5096 38.7261 17.9034 38.8767 17.8329 39.4928C17.6251 39.6745 17.3051 39.7439 16.8984 39.7261C16.8984 39.415 16.8984 39.1022 16.8984 38.7922Z" fill="black"/>
<path fill-rule="evenodd" clip-rule="evenodd" d="M40.4928 38.7923C40.8711 38.7261 40.895 39.0123 41.1939 39.025C41.2645 39.64 40.8711 39.7912 40.2594 39.7262C40.1594 39.2378 40.4189 39.1078 40.4928 38.7923Z" fill="black"/>
<path fill-rule="evenodd" clip-rule="evenodd" d="M9.42286 40.194C8.76231 40.0006 8.81786 40.5228 8.25453 40.4273C7.86176 39.3173 9.59897 39.1384 9.42286 40.194Z" fill="black"/>
<path fill-rule="evenodd" clip-rule="evenodd" d="M24.8411 40.1939C25.2517 40.25 25.3734 40.595 25.3078 41.1278C25.0745 41.1278 24.8411 41.1278 24.6067 41.1278C24.5083 40.6395 24.7678 40.5095 24.8411 40.1939Z" fill="black"/>
<path fill-rule="evenodd" clip-rule="evenodd" d="M44.4644 40.1939C44.6577 40.8539 44.1344 40.7995 44.23 41.3617C43.8889 41.1578 43.3255 41.1756 43.5294 40.4273C43.7377 40.2456 44.0572 40.1756 44.4644 40.1939Z" fill="black"/>
<path fill-rule="evenodd" clip-rule="evenodd" d="M26.4757 40.4272C26.669 41.0878 26.1468 41.0317 26.2423 41.5961C25.5473 41.5745 25.6179 40.2017 26.4757 40.4272Z" fill="black"/>
<path fill-rule="evenodd" clip-rule="evenodd" d="M17.8327 42.0622C18.2027 42.0811 18.7239 41.95 18.7672 42.2961C19.0222 43.1161 17.3338 42.9217 17.8327 42.0622Z" fill="black"/>
<path fill-rule="evenodd" clip-rule="evenodd" d="M32.3167 42.0622C32.7051 42.5261 32.2956 42.3589 32.3167 42.9972C31.4179 43.18 31.4179 41.8783 32.3167 42.0622Z" fill="black"/>
<path fill-rule="evenodd" clip-rule="evenodd" d="M8.02112 42.5294C7.88001 43.0122 7.66001 43.4144 6.85278 43.2306C6.85278 42.9972 6.85278 42.7633 6.85278 42.5294C7.16001 42.2294 7.7139 42.2294 8.02112 42.5294Z" fill="black"/>
<path fill-rule="evenodd" clip-rule="evenodd" d="M14.7956 42.5295C14.8662 43.1445 14.4717 43.2956 13.8612 43.2306C13.7912 42.6145 14.1851 42.4639 14.7956 42.5295Z" fill="black"/>
<path fill-rule="evenodd" clip-rule="evenodd" d="M43.5301 42.5295C44.1412 42.4639 44.5345 42.6145 44.4651 43.2306C44.0262 43.6889 43.3401 43.3656 43.5301 42.5295Z" fill="black"/>
<path fill-rule="evenodd" clip-rule="evenodd" d="M26.7095 43.23C27.6084 43.0467 27.6084 44.3489 26.7095 44.1645C26.3201 43.7 26.7301 43.8672 26.7095 43.23Z" fill="black"/>
<path fill-rule="evenodd" clip-rule="evenodd" d="M9.65616 43.6978C9.72227 44.3083 9.57116 44.7028 8.9556 44.6317C8.88949 44.0206 9.0406 43.6272 9.65616 43.6978Z" fill="black"/>
<path fill-rule="evenodd" clip-rule="evenodd" d="M28.5778 43.9311C29.2811 43.6956 28.9922 44.4517 29.0455 44.8656C28.8122 44.8656 28.5778 44.8656 28.345 44.8656C28.2461 44.3767 28.505 44.2472 28.5778 43.9311Z" fill="black"/>
<path fill-rule="evenodd" clip-rule="evenodd" d="M3.81618 44.3989C4.5534 44.4395 5.20951 44.5623 5.21785 45.3328C4.70729 45.7745 3.73174 45.265 3.81618 44.3989Z" fill="black"/>
<path fill-rule="evenodd" clip-rule="evenodd" d="M21.3367 44.3989C21.6478 44.3989 21.9595 44.3989 22.2711 44.3989C22.3795 45.1289 22.0678 45.4412 21.3367 45.3328C21.3367 45.0217 21.3367 44.7095 21.3367 44.3989Z" fill="black"/>
<path fill-rule="evenodd" clip-rule="evenodd" d="M35.5868 44.3989C36.5629 44.5539 35.6962 45.8484 35.1201 45.0995C35.2023 44.7934 35.5307 44.7312 35.5868 44.3989Z" fill="black"/>
<path fill-rule="evenodd" clip-rule="evenodd" d="M31.8495 45.8C32.2717 46.2006 31.7778 46.7178 31.1484 46.7345C31.0828 46.1228 31.2345 45.7295 31.8495 45.8Z" fill="black"/>
<path fill-rule="evenodd" clip-rule="evenodd" d="M16.1973 46.0334C16.8128 45.9639 16.9639 46.3562 16.8984 46.9678C16.5873 46.9678 16.2756 46.9678 15.9639 46.9678C15.8645 46.4789 16.1239 46.3506 16.1973 46.0334Z" fill="black"/>
<path fill-rule="evenodd" clip-rule="evenodd" d="M33.0172 42.0623C30.4933 36.4711 38.4127 35.5578 38.39 40.1939C38.3777 42.8639 35.2422 43.5745 33.0172 42.0623ZM33.4839 39.7262C34.4361 39.2762 35.4672 38.905 36.5216 38.5578C35.4211 37.4084 33.6633 38.52 33.4839 39.7262Z" fill="black"/>
<path fill-rule="evenodd" clip-rule="evenodd" d="M33.4839 3.75003C37.8745 4.43114 42.7945 -0.352195 46.0995 2.58169C49.4562 5.56058 43.6156 10.2011 42.1284 12.3934C44.8834 15.5861 47.4934 16.6873 47.0339 21.5045C46.7484 24.5139 43.7867 26.6267 43.2962 29.2134C42.3589 34.1556 45.3339 36.7434 47.2678 39.96C47.0051 41.7206 47.8234 45.3389 46.3328 46.5011C43.5151 47.2417 42.1984 45.0217 40.0251 44.3989C37.4695 45.8978 34.7989 48.5439 31.3806 48.1361C29.2767 47.8856 27.6589 45.9245 25.5412 45.8006C22.3784 45.6156 21.0039 47.6984 18.0656 49.0706C14.9339 49.0195 13.0389 46.4145 10.1228 46.2673C7.47339 46.1356 4.46283 49.12 1.94617 46.5017C1.09228 42.5695 3.81728 40.515 5.21672 38.0917C5.31672 36.7173 4.07839 36.1861 4.04839 35.0539C3.96894 32.0422 7.99339 28.8645 5.45005 25.2423C0.512832 24.1245 5.21672 19.59 5.21672 16.5984C5.21672 13.045 0.774499 11.3823 2.1795 6.55336C2.67894 4.83892 4.5345 1.87447 6.3845 1.88058C7.4645 1.88447 8.50783 2.88003 9.65505 3.04892C12.5612 3.47669 15.5523 0.636694 18.0667 1.18003C20.2351 1.64892 21.0706 4.09447 24.1406 3.98336C26.8962 2.61947 31.6251 -0.490528 33.4839 3.75003ZM16.6645 3.04892C15.9284 3.08392 16.5662 1.74614 15.4967 2.11447C13.2278 2.85892 11.9695 4.03558 9.42283 3.74947C7.93783 3.58281 6.35617 2.25725 4.98394 3.04836C4.18505 4.99947 2.33561 6.47058 2.64783 8.88892C2.89894 10.8284 4.73561 12.7384 5.91839 13.5617C5.48394 14.6339 5.99117 15.2178 5.91839 16.1317C5.72672 18.5361 3.59783 20.9784 3.81561 22.4389C4.07172 24.1539 6.27505 24.3923 7.32005 25.9434C7.10172 26.1934 6.45783 26.0161 6.61894 26.6445C7.39394 29.885 5.46228 32.3022 4.98339 35.0545C8.20839 39.4778 0.981721 41.0167 2.88061 46.2678C3.60839 46.3961 4.40339 46.4584 4.98339 46.7356C4.84172 45.8156 5.50617 45.7011 6.15172 45.5673C6.15172 45.9567 6.15172 46.3456 6.15172 46.7356C10.3712 43.7145 14.1945 47.5873 18.2995 48.1367C20.8939 46.8661 22.7295 44.5467 26.2423 44.8661C28.3689 45.0595 30.3578 47.1417 32.3167 47.2028C35.1301 47.2884 38.0512 43.7773 40.0256 43.6984C42.4006 43.6028 43.3117 46.5911 46.0995 45.8006C48.3456 40.7361 43.3378 37.795 42.5951 33.6528C41.4923 27.4934 46.9156 25.0717 46.3334 19.6361C46.2212 18.5923 45.6617 17.625 45.1656 16.1323C43.7934 14.8517 41.5545 14.8545 41.4273 12.8611C41.2328 9.83225 49.7273 6.61892 44.9317 2.81614C40.9234 2.38836 38.1717 4.16281 33.2523 4.68447C32.5534 2.41114 28.1601 0.865583 27.1767 3.98336C26.1201 3.57114 25.0373 4.63947 23.6728 4.68392C21.1395 4.76781 19.0889 2.80114 17.3651 1.88058C17.0401 2.17836 17.2639 3.02503 16.6645 3.04892Z" fill="black"/>
</svg>
