<svg width="51" height="51" viewBox="0 0 51 51" fill="none" xmlns="http://www.w3.org/2000/svg">
<rect width="51" height="51" fill="white"/>
<path d="M48.45 48.45H2.54999V2.54999H48.45V48.45ZM4.58999 46.41H46.41V4.58999H4.58999V46.41Z" fill="black"/>
<path d="M25.2552 33.9507C23.5404 33.9507 21.8642 33.4422 20.4384 32.4896C19.0126 31.5369 17.9014 30.1828 17.2452 28.5986C16.589 27.0144 16.4173 25.2711 16.7518 23.5893C17.0863 21.9075 17.9121 20.3626 19.1246 19.1501C20.3371 17.9376 21.882 17.1118 23.5638 16.7773C25.2456 16.4428 26.9888 16.6145 28.5731 17.2707C30.1573 17.9269 31.5114 19.0382 32.464 20.4639C33.4167 21.8897 33.9252 23.566 33.9252 25.2807C33.9252 27.5801 33.0118 29.7854 31.3858 31.4113C29.7599 33.0373 27.5546 33.9507 25.2552 33.9507ZM25.2552 18.6507C23.9439 18.6507 22.6621 19.0396 21.5718 19.7681C20.4815 20.4966 19.6317 21.5321 19.1299 22.7435C18.6281 23.955 18.4968 25.2881 18.7526 26.5742C19.0084 27.8603 19.6399 29.0416 20.5671 29.9688C21.4943 30.8961 22.6757 31.5275 23.9618 31.7833C25.2479 32.0391 26.5809 31.9079 27.7924 31.406C29.0039 30.9042 30.0393 30.0544 30.7679 28.9642C31.4964 27.8739 31.8852 26.592 31.8852 25.2807C31.8852 23.5223 31.1867 21.836 29.9433 20.5926C28.7 19.3492 27.0136 18.6507 25.2552 18.6507Z" fill="black"/>
</svg>
